<?xml version="1.0" encoding="utf-8"?>
<!-- Generator: Adobe Illustrator 19.0.0, SVG Export Plug-In . SVG Version: 6.00 Build 0)  -->
<svg version="1.1" id="Layer_1" xmlns="http://www.w3.org/2000/svg" xmlns:xlink="http://www.w3.org/1999/xlink" x="0px" y="0px"
	 viewBox="0 0 520 520" style="enable-background:new 0 0 520 520;" xml:space="preserve">
<style type="text/css">
	.st0{fill:#5D5D5D;}
	.st1{fill:#5B5B5B;}
	.st2{fill:#FFFFFF;}
</style>
<path class="st0" d="M182.9,348.5c-0.9,0.6-1.7,1.1-2.7,1.8c-0.5-0.8-0.9-1.5-1.3-2.3c-1.8-3.6-2.6-7.5-2.9-11.6
	c-0.3-4.4,1.1-8.2,4.2-11.4c5-5.2,11.1-7.1,18.1-5.1c6.3,1.8,11.2,5.8,15.3,10.7c4.9,5.9,8.4,12.6,9.9,20.2c0.1,0.3,0.2,0.6,0.5,1.3
	c0.6-1,1-1.7,1.4-2.4c4.2-7.1,9.1-13.7,15.4-19.2c6-5.2,12.7-8.9,20.6-10.2c7.6-1.3,15.2-0.7,22.4,2.2c8.6,3.4,14.3,9.7,18.2,17.9
	c3.2,6.7,4.9,13.8,5.7,21.2c1.3,11.1,0.6,22.2-0.8,33.3c-1.6,13.4-4,26.7-7.3,39.8c-0.1,0.5-0.2,0.9-0.3,1.7
	c5.5-0.8,10.8-1.5,16.3-2.3c-0.1-0.7-0.1-1.3-0.2-2c-1.6-13.3-0.1-26.3,4.8-38.9c1.7-4.4,4-8.4,7.1-11.9c4.9-5.5,11-8.4,18.4-8.4
	c4.6,0,8.4,1.7,11.5,5.1c2.6,2.8,4.1,6.2,5.2,10c-0.9,0.4-1.7,0.7-2.7,1.1c-0.4-0.8-0.8-1.5-1.1-2.2c-0.5-1.2-1-2.4-1.5-3.5
	c-1.9-3.8-4.8-5.1-8.9-3.9c-2.6,0.7-4.5,2.3-6.1,4.4c-2.1,2.6-3.5,5.6-4.5,8.7c-2.2,6.1-3.2,12.5-3.9,19c-0.7,6.6-0.8,13.3,0.1,19.9
	c0.4,2.8,1.1,5.5,1.9,8.1c0.4,1.3,1.2,2.4,2.1,3.5c2.4,2.7,6.2,3.2,9,0.9c1.7-1.4,3.1-3.2,4.3-5.1c3.1-5.3,4.8-11.1,6.2-17.1
	c2.1-8.5,3.8-17.2,5.8-25.7c0.7-2.9,1.5-5.9,2.6-8.7c1-2.8,1.9-3.1,4.8-2.5c5.4,1.2,9,5.7,9.2,11.7c0.1,6.5,0.1,13,0.1,19.4
	c0,9,0,18.1,1.1,27.1c0.4,3.2,1.1,6.5,1.9,9.6c0.4,1.6,1,3.5,2.9,3.7c1.7,0.1,2.4-1.6,3.2-2.9c2.9-4.8,4.8-10.1,6.7-15.4
	c0.2-0.6,0.2-1.3,0.1-1.9c-2.3-14.1-2.1-28.2-1.4-42.4c0.4-8.1,1-16.1,1.6-24.2c0.4-5.5,1.1-11,1.6-16.5c0.1-1.3,0.2-2.6,0.1-3.8
	c0-0.5-0.5-1.2-1-1.4c-5.6-1.9-11.2-2.7-16.9-0.3c-4.8,2-7.3,5.5-7.6,10.7c-0.1,1.7,0,3.5,0,5.4c-1.2,0.1-2.1,0.2-3.3,0.4
	c-0.1-1.2-0.3-2.3-0.4-3.4c-0.4-11.8,7.7-16.4,15.3-17.5c4.4-0.6,8.8-0.1,13.1,0.7c0.5,0.1,0.9,0.1,1.6,0.2c0.4-2.9,0.6-5.6,1.1-8.4
	c0.6-3.5,1.2-7.1,2-10.6c1.1-4.4,2.4-5,6.7-3.9c6.3,1.5,10,6.2,9.7,12.7c-0.1,3.7-0.7,7.3-1.1,11c-0.1,1-0.2,2-0.2,3.2
	c5.4,1.9,10.7,3.1,16.3,1.8c2.1-0.5,4.1-1.4,5.6-3.1c2-2.2,4.1-4.3,5.7-6.8c1.3-2,2.8-2.6,5.3-1.9c-3,5.1-6.1,10-11.3,13
	c-4.7,2.8-9.8,3.2-15.1,2.4c-2.2-0.3-4.4-0.8-6.7-1.2c-0.4,2.6-0.8,5.1-1,7.5c-0.7,8.6-1.7,17.2-2,25.8c-0.4,10.9-0.6,21.9-0.4,32.9
	c0.1,9,1,17.9,3.3,26.6c0.8,3.1,2,6.1,3.5,8.9c0.9,1.7,2.3,3.3,3.8,4.5c2.9,2.3,6.3,2.1,8.9-0.6c1.9-2.1,3.7-4.4,5.1-6.9
	c3.8-6.5,6.4-13.6,8.8-20.7c0.3-1,0.1-2.2,0-3.3c-2.7-17.3,1.5-32.7,12.8-46c4-4.7,9.2-7.9,15.4-9.2c5.2-1.1,10.4-0.6,15.3,1.5
	c8.1,3.5,10.8,11.5,6.5,19.3c-2,3.5-4.8,6.2-8.1,8.4c-6.4,4.4-13.6,7.1-21.1,8.8c-2.1,0.5-2.9,1.5-3.4,3.4
	c-0.9,3.8-0.4,7.6,0.4,11.4c1.2,5.9,3.4,11.3,6.7,16.3c1.7,2.5,3.7,4.8,6.3,6.5c3.5,2.3,7.1,2.5,10.9,0.6c2.6-1.3,4.8-3.2,6.8-5.3
	c4.1-4.4,7.4-9.4,10.2-14.7c2.2-4.2,4.1-8.6,6.2-13c0.3-0.6,0.6-1.3,0.9-2c1.2,0,2.2,0,3.5,0c-0.1,0.5-0.1,0.9-0.2,1.3
	c-3.7,10.4-8.5,20.2-15.6,28.7c-3.1,3.8-6.6,7.2-10.9,9.7c-9,5.2-18,5.7-27,0c-4.8-3-8.2-7.4-10.8-12.3c-0.7-1.3-1.3-2.6-2.2-4.3
	c-0.5,1.1-0.8,1.8-1.1,2.5c-2.4,5.2-4.6,10.5-7.1,15.7c-1,2-2.2,3.9-3.5,5.7c-0.9,1.4-2,2.7-3.1,3.9c-4.8,5.5-10.7,7-17.6,5.1
	c-4.8-1.3-8.6-4.2-11.6-8.1c-3.2-4.2-5.3-8.9-6.9-13.9c-0.2-0.8-0.5-1.5-0.7-2.3c-1,0.3-1,1.3-1.3,1.9c-2.1,4.3-3.9,8.7-6.2,13
	c-1.2,2.1-2.8,4.1-4.5,5.8c-4.1,4-8.6,3.6-12.2-0.8c-2.5-3-4-6.5-5.3-10.2c-2.6-7.6-4.1-15.4-5.3-23.3c-0.4-2.5-0.7-5.1-1.3-7.7
	c-0.2,0.6-0.5,1.2-0.7,1.8c-2.1,6.7-4.7,13.3-8.6,19.2c-1.3,2-2.8,3.9-4.4,5.7c-4.9,5.3-10.6,6.4-17.9,3.4c-4.3-1.8-7.4-5-9.6-9
	c-1.2-2.1-2.2-4.4-3.4-6.9c-2.5,0.3-5.1,0.6-7.7,1c-3.3,0.6-6.6,1.4-9.8,2.1c-1,0.2-1.6,0.8-2,1.8c-6.9,18.4-18.1,33.9-32.2,47.4
	c-6.3,6.1-13.6,10.6-22,13.2c-3.6,1.1-7.3,1.7-11.1,1.3c-5.5-0.6-9.6-3.3-12.2-8.2c-3.1-5.8-3.3-11.9-1.6-18.2
	c1.7-6.3,5.2-11.6,10-16.1c7.5-7.2,16.3-12.1,25.9-15.6c5.3-1.9,10.8-3.5,16.2-5.1c1.5-0.5,2.4-1.2,2.9-2.7
	c2.9-8.2,4.7-16.6,6.1-25.1c2.5-15.8,3.4-31.6,3.3-47.6c-0.1-7.6-0.9-15-3.7-22.1c-1.7-4.3-4-8.2-7.3-11.4c-4.1-3.9-9-5.8-14.6-5.8
	c-2.4,0-4.6,0.6-6.6,1.9c-2.5,1.7-5.1,3.4-7.3,5.4c-5,4.3-9,9.5-12.6,15c-3.9,6-5.2,12.4-4.3,19.4c1.3,9.8,2.5,19.7,3.5,29.5
	c1.1,11,1,22,0.3,33.1c-0.5,7.2-1.3,14.3-3.1,21.3c-1,4.3-2.4,8.5-4.5,12.4c-1.6,3-3.5,5.7-6.2,7.8c-4.3,3.3-9.1,4-14.3,2.5
	c-3.5-1-5.9-3.5-7.4-6.7c-1.7-3.5-2.3-7.3-2.5-11.2c-0.4-10.1,0.5-20.1,2.1-30.1c1.7-10.9,5.1-21.3,8-31.8c2.1-7.5,4-15.1,6.2-22.7
	c0.6-2.3,0.3-4.4,0-6.6c-1.3-10.3-3.4-20.4-7.7-29.8c-1.1-2.4-2.6-4.8-4.2-6.9c-1-1.4-2.5-2.6-4-3.4c-2.6-1.4-5.3-1.3-7.9,0.7
	c-3.5,2.7-5.1,6.1-4.8,10.6C179.7,341,180.6,344.9,182.9,348.5z M268.6,446c-0.6,0-0.8,0-1,0c-6.5,1.3-12.8,3.4-18.9,6.2
	c-7,3.1-13.4,7-18.8,12.6c-3.9,4-6.8,8.6-8.3,14.1c-0.6,2.4-0.8,4.7-0.2,7.1c0.8,3.3,2.9,5.1,6.3,5.1c3.5,0.1,6.7-1.1,9.4-3.1
	c2.7-2.1,5.4-4.3,7.7-6.8c9.4-10,16.9-21.5,23.3-33.6C268.2,447.1,268.4,446.6,268.6,446z M209.2,384.8c-0.5,1-0.8,1.5-0.9,2
	c-6.3,18.7-11.5,37.6-12.6,57.4c-0.3,5.5-0.5,11,0.3,16.5c0.4,2.7,1,5.4,2.6,7.7c2.4,3.4,5.9,3.3,7.8-0.3c1-1.9,1.7-4,2.2-6
	c1.5-5.7,2-11.5,2.3-17.3c1-18.3,0.6-36.6-1-54.8C209.7,388.3,209.5,386.8,209.2,384.8z M465.1,406c1.1,0,1.8,0.1,2.4,0
	c8.9-1.5,16.8-5,23.1-11.6c1.8-1.9,3.2-4.2,3.9-6.8c1-3.7,0-6.7-2.7-8.5c-2.8-1.8-7.4-2.8-11,0c-1.6,1.2-3.1,2.6-4.4,4.1
	c-4.5,5.3-7.8,11.2-10,17.8C465.8,402.4,465.6,404,465.1,406z"/>
<path class="st1" d="M61.6,114.6c-4-1.7-5.1,0.5-6.2,2.9c-3.9,8.4-9.5,15.3-17.5,20.1c-1.5,0.9-3.1,1.6-4.7,2.3
	c-2.1,0.9-4,0.5-5.5-1.2c-1.5-1.7-2.9-3.6-4.1-5.6c-3-5.1-6.5-9.9-10.4-14.3c-1-1.1-2-2.1-3-3.1c-0.7-0.8-1.4-1.5-2-2.4
	c-1.1-1.6-1.3-3.2-0.3-4.9c1.5-2.7,3.5-4.9,5.9-6.9c3.6-2.9,3.5-2.4,1.4-6.6c-0.2-0.4-0.4-0.9-0.8-1.6c5.7-7.1,13.6-10.2,22.5-11.4
	c0-0.2,0-0.3-0.1-0.5c-1.2-0.4-2.4-0.8-3.5-1.2c-1.1-0.4-2.3-0.8-3.3-1.4c-1.3-0.8-1.3-1.7-0.2-2.7c0.3-0.3,0.6-0.5,1-0.7
	c0.8-0.5,1.4-1.1,1-2.2c-0.3-1.1,0.2-1.8,1.1-2.4c1-0.7,1.8-1.5,2.2-2.7c0.5-1.5,1.9-2,3.3-2.5c2.5-0.7,2.6-0.8,2.3-3.5
	c-0.1-1.3,0.4-2.2,1.5-2.7c0.5-0.2,1-0.4,1.7-0.6c-0.8-2.7,1.9-3.4,2.8-5.1c0.1-0.2,1.4-0.1,2,0.1c2.5,1.2,5,2.5,7.5,3.8
	c4.3,2.3,8.5,4.8,12.8,7c3,1.6,5.7,3.6,7.7,6.3c0.8,1.1,1.7,1.5,3.2,1.4c2-0.2,4.1,0.3,6.2,0.4c2.4,0.1,2.7,0,3.6-2.2
	c2-5.4,3.1-10.9,3.1-16.6c0-4.3,0.3-8.6,1.4-12.8c1.4-4.9,3.6-9.4,6.5-13.6c0.9-1.3,2.1-2.4,3.3-3.4c4.7-3.8,9.9-6.8,15.4-9.2
	c3.8-1.6,7.8-2.2,12-1.4c1,0.2,1.6,0.6,2,1.5c0.9,1.7,1.9,3.4,2.9,5c1.1,1.8,1.6,2,3.5,0.9c2-1.1,4-2.4,6-3.5
	c2.5-1.5,5.3-2.1,8.2-2.3c1.4-0.1,2.4,0.3,3.2,1.6c0.9,1.6,1.3,1.5,2.9,0.7c1.2-0.6,2.4-1.1,3.7-1.6c0.5,0.6,0.8,0.9,1.1,1.3
	c3.6,5.5,7.2,11,10.8,16.5c2.4,3.8,2.3,4.6-1.1,7.4c-7.1,5.9-14.5,11.3-23.1,14.8c-2.6,1.1-5.2,2.1-7.8,3.2c-3.7,1.5-7,3.8-9.5,6.8
	c-2.2,2.7-5.1,3.8-7.8,5.5c-0.1,0.1-0.2,0.2-0.4,0.5c1.2,0.8,2.5,1,3.8,1.1c8.8,0.8,17.3,3,25.5,6.2c7.6,2.9,14.9,6.7,21.7,11.2
	c4.6,3,8.7,6.8,12.4,10.9c2.6,2.9,5.3,5.8,7.9,8.7c2.2,2.4,3.8,5.1,5.1,8.1c2.9,6.8,4.5,13.9,5.3,21.3c0.7,6.4,1.6,12.9,3.3,19.1
	c3.8,14.2,12.2,24.7,25.5,31.3c7.7,3.8,15.3,4.1,23.2,1.3c3.4-1.2,6.6-2.9,9.8-4.4c2-0.9,3.8-2,6.1-1.8c1,0.1,1.4-0.5,1.9-1.2
	c1.6-2.5,3.1-5,4.7-7.5c2-3,4.2-6,6.3-9c0.9-1.4,1.8-2.8,2.7-4.2c0.2-0.3,0.3-0.6,0.5-0.8c2.7-3.2,5.3-6.4,8.1-9.5
	c2.5-2.8,4.3-5.9,5.7-9.3c2.9-7.2,4.9-14.7,5.8-22.4c0.1-0.5,0.2-1,0.4-1.4c0.5-1.1,1.2-1.2,2-0.3c0.4,0.5,0.8,1,1.1,1.5
	c1.9,2.7,3.7,5.4,5.5,8.1c1.3,1.9,2.6,3.6,4.7,4.7c1.5,0.7,2.9,1.7,4.2,2.7c2.7,1.9,5.6,2.2,8.7,1.3c1.1-0.3,2.2-0.5,3.3-0.6
	c1.4-0.1,2,0.6,1.6,1.9c-0.2,0.9-0.7,1.8-1.1,2.6c-1.5,2.9-2.9,5.9-4.6,8.7c-1.6,2.6-3.2,5.3-5.3,7.4c-9.4,9.5-19.5,18.1-31.8,23.6
	c-2.8,1.2-5.6,2.2-8.5,3.1c-3.7,1.1-7.4,2-11.1,2.9c-2.1,0.5-3.6,1.8-4.5,3.6c-1.7,3.4-4.1,6.1-6.7,8.7c-2.1,2.2-4.2,4.4-6.4,6.5
	c-5.1,4.8-11.5,7-18.1,8.3c-9.4,1.8-18.6,0.9-27.6-2.5c-5.2-2-9.5-5.3-13.4-9.1c-6.9-6.9-12.8-14.5-17.1-23.3
	c-2-4.2-2.8-8.6-3.1-13.2c-0.5-7.2-0.8-14.4-1.6-21.5c-0.4-3.7-1.3-7.4-2.4-11c-0.9-2.9-2.4-5.6-4-8.2
	c-6.2-10.3-14.2-18.9-24.7-24.9c-4-2.3-8-4.6-12.4-6.3c-2.7-1.1-5.4-1.9-8.3-2.1c-7.5-0.4-14.7-1.9-22-3.3c-3.1-0.6-6.3-1-9.5-1.6
	c-2.8-0.5-5.4-1.4-7.7-3.2c-1.4,0.9-2.9,1.6-4,2.6c-1.1,1-1.9,2.3-2.8,3.6c0.8,2.7,0.5,5.4-0.5,7.9c-0.8,1.9-0.4,3.4,0.3,5.2
	c1.7,4,3.9,7.7,6.5,11.1c3.2,4.2,7,7.9,11.2,11.1c5.3,4,10.4,8.3,14.6,13.4c1.8,2.2,3.5,4.6,4.8,7.1c2.5,5,4.7,10.2,4.8,15.9
	c0.1,10.7-2.5,20.5-9.1,29.2c-2.3,3-4.9,5.7-7.4,8.4c-7.6,8.3-14.5,17-20.4,26.6c-2.4,3.9-4.3,8-5.6,12.4
	c-1.6,5.4-3.1,10.7-4.8,16.1c-2.6,8.4-2.4,16.8-0.6,25.4c0.8,3.9,2.1,7.7,3.7,11.3c2.3,5.4,4.9,10.6,7.5,15.8c1,1.9,2.2,3.7,3.4,5.5
	c1.2,1.7,2.5,3.3,4.6,4.1c0.5,0.2,0.9,0.8,1.4,1.2c-0.8,0.5-1.3,0.9-1.8,1.1c-0.8,0.3-1.6,0.7-2.4,0.7c-2.2,0.1-4.5,0-6.7,0.1
	c-0.4,0-1,0.2-1.3,0.5c-1.2,1.7-3,1.7-4.7,1.9c-0.8,0.1-1.6,0-2.4,0.1c-2.5,0.1-5.1-0.1-7.5,0.5c-4.8,1.2-10.3,5.5-9.7,11.7
	c0.1,1.1,0.2,2.3,0,3.3c-0.1,0.7-0.6,1.6-1.2,1.9c-0.9,0.4-1.6-0.3-2.1-1.1c-2.4-3.8-5.1-7.6-6.8-11.8c-2.8-6.9-4.8-14.2-5.1-21.6
	c-0.4-7.9,0-15.8,1.5-23.6c0.3-1.6,0.8-3.3,1.4-4.8c3.1-8.1,5.6-16.5,9.9-24.1c4.1-7.2,8.9-13.9,14.6-19.8
	c4.7-4.8,9.4-9.6,14.1-14.4c1.2-1.2,2.6-2.1,3.8-3.2c0.9-0.8,1.8-1.6,2.4-2.6c4.2-5.9,7.9-12.1,10.1-19.2
	c3.2-10.4,2.8-20.6-0.7-30.8c-1.9-5.3-4.8-9.9-8.9-13.8c-4.4-4.2-9.1-8.1-13.7-12.1c-5.1-4.5-10.3-8.9-14.2-14.5
	C65.3,119.6,63.2,116.9,61.6,114.6z M122.1,73.7c-4,1.1-7.6,2.4-11.3,3.2c-4.1,0.9-8.3,1.4-12.5,2c-2.4,0.3-4.3,1.4-6.5,3.1
	c1.4,0.6,2.6,1,3.7,1.5c4.1,1.6,8.4,1.8,12.6,2.6c6.9,1.3,13.7,3.1,20.8,3.4c5,0.2,9.6,1.7,14,3.8c5,2.5,9.8,5.3,14.5,8.4
	c9.4,6.4,16.5,14.8,21.9,24.7c3,5.6,5.1,11.6,5.6,17.9c0.6,7.6,1,15.2,1.5,22.7c0.3,4.8,1.5,9.3,4,13.4c1.7,2.9,3.4,5.8,5.3,8.5
	c4,5.8,8.6,11.1,14.2,15.5c3.8,2.9,7.8,5.2,12.5,6.3c6.8,1.7,13.7,2.3,20.7,1.1c5.3-0.9,10.8-1.7,14.9-5.8c0.2-0.2,0.4-0.3,0.6-0.4
	c6.1-4,10.4-9.7,14.5-15.5c0.3-0.4,0.4-1.1,0.6-1.6c-0.1-0.1-0.2-0.3-0.4-0.4c-2,0.8-3.9,1.6-5.9,2.4c-3.6,1.4-7.2,3-11,4.2
	c-5.4,1.7-10.9,1.6-16.2-0.5c-4.6-1.8-9-4.1-13-7.1c-11.5-8.3-17.6-20-20.1-33.7c-0.2-1.3-0.5-2.7-0.7-4c-0.5-2.8-1.1-5.6-1.4-8.5
	c-0.5-5.4-1.4-10.8-3.3-15.9c-1.6-4.4-3-9-6.2-12.6c-4.3-4.7-8.5-9.6-13.1-14c-3.2-3.1-6.9-5.8-10.6-8.1c-4.5-2.8-9.3-5.3-14.2-7.5
	c-3.8-1.7-7.9-3.1-12-4.1c-5.3-1.3-10.8-2.1-16.2-3.2C126.8,75,124.1,75,122.1,73.7z M87.7,223.4c-0.2-0.1-0.3-0.2-0.5-0.4
	c-4.8,5.1-9.9,10-14.5,15.3c-6.6,7.6-12.1,15.9-15.7,25.3c-1,2.7-2.1,5.3-3.1,8c-2.1,5.6-4.1,11.3-4.2,17.4c0,1.9-0.1,3.8-0.3,5.7
	c-0.6,5.6-0.4,11.1,0.7,16.7c1.4,7.1,3.4,14,7.4,20.1c0.3,0.5,0.7,0.9,1.3,1.7c0.2-1.1,0.3-1.8,0.6-2.4c0.5-1.4,0.9-3,1.8-4.1
	c4-5.5,9.5-8.1,16.4-7.3c1.1,0.1,2.2,0.1,3.3,0c0.6-0.1,1.3-0.4,1.6-0.9c0.8-1.3,2-1.6,3.3-1.7c1.4-0.1,2.9,0,4.3-0.1
	c0.5,0,1-0.2,1.3-0.3c-1-1.9-2-3.5-2.9-5.3c-3-6-6-12-8.9-18c-0.8-1.6-1.2-3.4-1.7-5.2c-0.4-1.5-0.6-3.1-1-4.7
	c-2.2-7.9-3.2-15.9-1.5-23.9c1.2-6.1,3.1-12.1,4.8-18c1.6-5.5,3.5-11,6.6-15.9C87.1,224.8,87.4,224,87.7,223.4z M91.1,79.8
	c0.7-0.2,1-0.2,1.3-0.3c3.3-1.5,6.6-2.9,9.8-4.5c2.3-1.2,4.6-2.5,6.8-4c2.4-1.7,4.2-3.9,5.3-6.7c1.8-4.8,4.1-9.4,5.2-14.4
	c0.3-1.4,0.9-2.7,1.4-4.1c1.4-3.8,3.5-7.1,6.3-10.1c2.3-2.4,5-3.3,8.1-3.4c1.5-0.1,2.8,0.3,3.6,1.8c0.2,0.4,0.6,0.8,1.2,1.5
	c0.5-2.5,0-4.5-0.9-6.3c-2-4.1-4.3-8-6.5-12c-0.6-1.2-1.7-1.8-3-2.1c-2.7-0.6-5.2-0.4-7.8,0.6c-6.4,2.4-12.3,5.8-17.7,10
	c-0.8,0.6-1.6,1.4-2.2,2.2c-4.8,7.1-7.9,14.7-7.9,23.5c0,3.3-0.1,6.6-0.5,9.8c-0.6,4.6-1.2,9.2-3.9,13.2c0,0.1,0.1,0.2,0.2,0.5
	c0.3-0.1,0.6-0.2,0.8-0.4c2.6-3.2,4.9-6.5,5.9-10.6c0.4-1.9,1.1-3.8,1.8-5.7c0.3-1,0.8-1.9,1.3-2.8c0.2-0.3,0.8-0.3,1.5-0.6
	c-1,2.9-1.8,5.3-2.7,7.8c-0.8,2.4-1.6,4.8-2.4,7.2c1.3-1,2.1-2.3,3.1-3.5c1-1.2,1.5-2.8,3.4-3c-3.4,5.2-6.3,10.7-12.6,13.3
	C90.5,77.7,90.8,78.6,91.1,79.8z M67.4,116.4c-0.1,0.2-0.2,0.3-0.3,0.5c0.2,0.4,0.4,0.9,0.7,1.2c2.9,4.5,6.1,8.8,10.2,12.3
	c4.6,3.9,9.1,7.8,13.7,11.6c7.9,6.5,13.7,14.4,16.3,24.5c1.8,7.2,1.8,14.4,0.8,21.7c-0.3,1.8-0.8,3.5-1.3,5.3
	c-0.4,1.6-0.9,3.2-1.5,5.3c0.9-0.5,1.2-0.7,1.5-1c5.8-5.5,10.7-11.6,13.4-19.3c3.9-11.3,3.4-22.1-2.9-32.5
	c-3.3-5.4-7.6-9.9-12.4-13.9c-5.9-5-12.2-9.5-17.1-15.7c-2.8-3.6-5.4-7.3-6.8-11.7c-0.1-0.3-0.4-0.6-0.6-1
	c-3.2,4.7-6.1,9.2-7.3,14.5C71.4,117.6,69.4,117,67.4,116.4z M280.9,183.7c0.8-0.1,1.3,0,1.7-0.1c3.7-1,7.4-1.9,11.1-3
	c4.7-1.3,9.2-3.3,13.3-5.9c8.8-5.6,17-12,24.1-19.6c0.9-1,2-2.1,2.3-3.3c0.4-2.1,1.5-3.8,2.5-5.7c0.9-1.8,1.8-3.5,2.8-5.4
	c-0.6,0-0.9-0.1-1.2-0.1c-3.9,1.1-7.3-0.1-10.5-2.1c-3.9-2.5-7.5-5.1-9.9-9.2c-0.6-1-1.4-1.9-2.2-2.9c-0.3-0.4-0.8-0.7-1.4-1.2
	c-0.4,1.5-0.8,2.7-1,4c-1,5.7-3,11.1-5.1,16.4c-1.2,3-2.9,5.7-5,8.1c-1.4,1.6-2.7,3.3-4,5.1c-1.4,1.8-2.7,3.7-4.2,5.5
	c-1.6,1.9-3.5,3.5-4.9,5.5c-2.3,3.3-4.4,6.9-6.5,10.3C282.2,181.2,281.6,182.3,280.9,183.7z M64.9,84.5c-2.2-0.2-3.8-0.6-5.4-0.6
	c-7.2-0.1-14.4,0-21.6-0.1c-7.4-0.1-13.7,2.9-19.3,7.3c-2.4,1.9-2.6,3.1-0.8,5.7c1.8,2.8,3.6,5.6,5.5,8.5c1.9,2.9,3.7,5.8,5.6,8.6
	c0.8,1.2,1.8,2.3,2.8,3.3c1.4,1.3,2.6,1.5,4.6,0.9c-0.2-0.3-0.5-0.7-0.7-1c-1.2-2.1-1-4,0.8-5.6c0.9-0.8,2.1-1.5,3.2-2
	c2.3-1,4.7-2.1,7.1-2.8c2.3-0.7,3.7-2,4.8-4.2c3.1-6.3,6.9-12.1,12.4-16.6C64,85.6,64.2,85.2,64.9,84.5z M110.7,75.3
	c0.7,0,1.1,0,1.4-0.1c5.9-1.2,11.2-3.8,16.4-6.6c0.5-0.3,0.8-0.7,1.2-1.1c0.6-0.6,1.1-1.4,1.8-1.8c4.2-2.8,7.4-6.5,10-10.8
	c1.1-1.9,2.3-3.9,3.5-5.7c3.2-4.9,7.5-8.3,12.8-10.9c3-1.5,5.6-1.4,8.4,0.1c0.1,0,0.3-0.1,0.5-0.1c-0.1-0.3-0.1-0.6-0.3-0.9
	c-3.5-6.4-7-12.7-10.5-19.1c-0.7-1.3-1.7-1.7-3.2-1.4c-5,0.9-9.1,3.8-13.3,6.4c-0.7,0.4-0.8,1.1-0.4,1.9c0.3,0.5,0.5,1,0.8,1.5
	c2.8,6,3.2,12-0.1,18c-0.7,1.3-1.4,2.6-2.2,3.7c-2,2.7-4.1,5.3-6.3,7.9c-5.9,6.9-11.9,13.8-20,18.5
	C111.1,74.6,111.1,74.8,110.7,75.3z M65.1,71.7c0.2,0.5,0.3,1,0.6,1.2c0.9,0.6,1.9,1.2,2.9,1.6c2.2,0.7,4.3,1.8,5.9,3.5
	c0.5,0.5,1.3,0.8,2,1.3c1.2-2.5,1.1-4.4-0.6-6.4c-2-2.4-4.3-4.3-6.9-5.9c-5.1-3-10.3-5.8-15.4-8.7c-1.3-0.7-2.7-1.4-4.1-2
	c-2-0.8-3.6,0.3-3.5,2.5c0.1,1.2-0.4,1.8-1.5,2c-0.7,0.1-1.3,0.5-2,0.7c0,0.5,0.1,0.8,0.1,1.1c0.3,2.4,0.1,2.9-2.1,3.9
	c-0.9,0.4-1.8,0.7-2.6,1.2c-0.5,0.3-1.1,0.9-1.2,1.4c-0.1,1.3-1,2-2,2.5c-0.7,0.4-1.5,0.9-1.2,1.8c0.4,1.5-0.4,2.4-1.6,3.1
	c-0.4,0.2-0.6,0.6-0.9,0.9c0.3,0.3,0.3,0.4,0.5,0.5c6.9,2.8,14,4.4,21.5,4.2c6-0.2,11.8,0.5,17.6,1.5c1.5,0.3,3,0.3,4.5,0.4
	c0.6,0,1.2-0.4,1.8-0.7c-0.5-1.6-1.7-1.9-2.7-2.3c-2.7-0.9-5.5-1.7-8.2-2.6c-2.6-0.8-5.2-1.5-7.8-2.3c-0.8-0.2-1.7-0.4-2-1.7
	c5.5,0.7,10.4,3,15.9,3.3c-0.1-0.4-0.4-0.5-0.7-0.6c-1.1-0.4-2.3-0.7-3.3-1.3c-1.5-0.8-3.1-1.5-4.2-2.6c-1.5-1.5-0.8-3.2,1.4-3.6
	c2.1-0.4,4.7,0.7,5.8,2.6c0.2,0.3,0.1,0.8,0.2,1.7C69.2,72.5,67.8,70.6,65.1,71.7z M72.5,115.5c0.2-0.3,0.4-0.5,0.6-0.8
	c1.6-2.8,3.1-5.5,4.7-8.3c1.3-2.2,2.7-4.4,3.7-6.7c0.8-1.9,1.3-3.9,1.6-6c0.4-3.7-0.3-4.9-3.5-6.3c-0.4,1.7-0.9,3.4-1.2,5.1
	c-0.2,0.8-0.3,1.4-1.4,1.1c-0.4-2.8,1.2-5.2,1.3-8c-1.6,0.3-2.5,1.3-3.2,2.5c-1.4,2.6-2.6,5.3-4,7.9c-0.2,0.3-0.5,0.6-1.1,1.1
	c-0.2-2.5,1.1-4,1.9-5.7c0.8-1.8,1.7-3.6,2.6-5.4c-6.1-1.7-8.1-1.2-12.2,3c-0.4,0.4-0.8,0.8-1.1,1.2c-3.5,4-6.3,8.4-8.8,13.1
	c-0.2,0.3-0.2,0.7-0.3,1.1c1.3,0.4,2.4,0.7,3.4,0.9c0.3,1.5,0.5,2.8,0.7,4.1c2.6,0,2.6,0,3.4,2.7c2.2-0.5,3.2,1.5,4.6,2.6
	c1.1-0.8,2.1-1.6,3.3-2.5C68.4,114.8,70,115.6,72.5,115.5z M108.2,73.8c5.6-2.2,7.8-3.7,11.9-7.7c5.3-5.2,10.2-10.8,14.8-16.7
	c1.1-1.4,2-2.9,2.9-4.4c1.5-2.2,1.7-4.5,1.1-7.1c-0.7-3.1-3.2-4.8-6.2-3.8c-1.5,0.5-2.9,1.3-4.1,2.4c-2.9,2.7-5,6-6.3,9.8
	c-2,5.7-4.1,11.4-6,17.2c-1.1,3.2-2.8,5.9-5.4,8C110,72.3,109.1,73,108.2,73.8z M35.7,120.4c-1.2-0.3-1.7-0.5-2.2-0.5
	c-1.6-0.1-2.7-0.9-3.6-2.1c-2-2.6-4-5.2-5.8-7.9c-1.7-2.4-3.1-5-4.7-7.5c-0.5-0.7-1-1.4-1.7-2.2c-2.9,2.3-5.7,4.2-7.5,7.3
	c-1.9,3.2-1.9,3.3,0.3,6.1c2.9,3.6,5.9,7.1,8.9,10.6c0.3,0.3,0.5,0.7,0.9,0.8c1,0.3,1.4,1.2,1.9,2c1.1,2,2.7,3.6,4.6,5.2
	C28.7,127.5,31.2,123.6,35.7,120.4z M54.9,114.1c-1,0.3-1.7,0.5-2.4,0.8c-2.8,1-5.5,2.1-8.3,2.9c-6.6,1.9-10.9,6.4-14.4,11.9
	c-0.4,0.7-0.6,1.5-0.9,2.3c2.4,0.5,2.7,0.3,6.4-1.3C43.3,127.1,50.2,122.2,54.9,114.1z M142.1,57c0.2,0.2,0.4,0.4,0.6,0.5
	c1.5-0.8,3.1-1.6,4.6-2.5c5.3-3.3,10.5-6.7,15.7-10.1c0.7-0.4,1.3-0.9,1.9-1.5c1.8-1.7,1.4-3.5-1-4.3c-1.9-0.6-3.8-0.3-5.6,0.5
	c-4,1.8-7.6,4.2-10.1,7.8C145.9,50.6,144,53.8,142.1,57z M159.2,19.6c3.5,6.8,6.8,13.3,10.1,19.9c2.1-0.8,4.2-1.4,6.1-2.7
	c-0.3-0.6-0.5-1.2-0.8-1.6c-3.4-5.1-6.8-10.3-10.2-15.4c-0.3-0.4-0.6-0.7-0.9-1.1c-0.6-0.7-1.3-0.9-2.1-0.4
	C160.8,18.7,160.2,19.1,159.2,19.6z M53.6,106.7c-1.5,0.2-2.9,0.1-4.1,0.6c-3.5,1.3-6.9,2.8-10.4,4.3c-0.7,0.3-1.4,0.8-1.9,1.4
	c-1,1-0.8,2.2,0.2,3.1c1.5,1.3,3.2,1.4,4.9,0.8c4.1-1.5,8.2-3.1,12.3-4.7c0.2-0.1,0.3-0.3,0.4-0.4C54.6,110.1,54.2,108.6,53.6,106.7
	z M83.5,74.3c-0.6,0-1.3,0-2,0c-1.1,0-1.7,0.5-2.1,1.5c-1.4,3.9,0.2,9.4,3.6,11.8c0.3,0.2,0.7,0.3,1,0.4
	C85.8,83.3,86.2,77.6,83.5,74.3z M50.7,122.3c-0.2,0.2-0.5,0.3-0.7,0.5c-2,2.4-4.5,4-7.2,5.5c-3,1.8-6.1,3.5-9.1,5.3
	c-0.5,0.3-1,0.5-1.4,0.9c-0.8,0.6-1.3,2.6-0.8,3.3c0.8,0.9,1.7,0.6,2.6,0.2c0.6-0.2,1.2-0.5,1.7-0.9c2.8-2,5.7-3.8,8.3-6.1
	C46.9,128.6,49,125.6,50.7,122.3z M86.7,84.6c2.3-0.8,3-1.4,2.7-3c-0.4-2-1.2-3.9-1.8-5.9c-0.1-0.3-0.5-0.4-0.9-0.6
	C86.7,78.3,86.7,81.3,86.7,84.6z M155.3,51.8c0.2,0.2,0.3,0.4,0.5,0.5c5.8-3.5,11.5-7,16.8-12c-3.1,1.1-4.1,1.8-5.6,3.7
	c-0.6,0.7-1.4,1.3-2.2,1.8C161.6,47.8,158.4,49.8,155.3,51.8z M29.3,138.3c0.3-1.7,0.5-2.7,0.7-4.1c-1.3,0.2-2.3,0.4-3.7,0.6
	C27.3,136,28.1,136.9,29.3,138.3z"/>
<path class="st1" d="M361.2,257.3c0.9,0.1,1.7,0.1,2.7,0.2c-0.1,0.5-0.1,0.7-0.1,0.9c-3,7.6-6.8,14.8-12,21.2
	c-2.9,3.5-6.1,6.6-10,8.8c-9.5,5.4-20.1,3.3-26.8-5.3c-4-5.2-6-11.2-7-17.6c-0.1-0.5-0.2-0.9-0.3-1.6c-5,2-9.5,1.1-13.6-2.4
	c-0.4,1.1-0.7,1.9-0.9,2.8c-1.5,5.4-3.4,10.6-5.9,15.7c-1.7,3.5-3.7,6.7-6.3,9.6c-2.5,2.8-5.4,4.9-9.2,5.7c-3.2,0.7-5.8-0.2-8.1-2.4
	c-1.9-1.9-3.3-4.1-4.3-6.6c-1.3-3.3-2.4-6.8-3.7-10.5c-0.4,0.8-0.7,1.5-1,2.2c-1.6,3.6-3.1,7.2-4.9,10.7c-1,2-2.4,3.8-3.7,5.6
	c-0.8,1-1.8,1.9-2.8,2.6c-2.8,1.9-5.7,1.7-7.9-0.9c-1.3-1.5-2.3-3.3-3.2-5.1c-2.3-5.1-3.4-10.6-4.3-16.2c-0.6-4.1-1.1-8.2-1.7-12.8
	c-0.4,0.8-0.7,1.3-0.9,1.8c-1.6,4.6-3.5,9.1-6.3,13.2c-1.5,2.2-3.1,4.3-4.9,6.2c-3.6,3.8-8,4.3-12.8,2.6c-4-1.4-6.7-4.2-8.7-7.8
	c-2.3-4.1-3.4-8.5-3.6-13.1c-0.3-9.5,1.1-18.6,4.8-27.4c1.6-3.8,3.6-7.3,6.5-10.3c4.2-4.3,9.3-6.3,15.4-5.9c3.6,0.2,6.4,1.8,8.6,4.6
	c1.8,2.2,2.9,4.7,3.6,7.7c-0.7,0.3-1.3,0.6-2.1,0.9c-0.6-1.5-1.1-2.8-1.7-4.1c-1.7-4-4.8-5.2-8.7-3.4c-2.4,1.1-4,3.1-5.4,5.3
	c-2.2,3.6-3.4,7.6-4.3,11.6c-1.8,7.8-2.4,15.6-1.9,23.6c0.1,1.9,0.5,3.8,1,5.7c0.2,1,0.7,2,1.2,2.8c2.1,3.4,5.9,4.1,8.7,1.3
	c1.6-1.6,3.1-3.6,4-5.6c1.8-4.2,3.4-8.6,4.7-13.1c1.8-6.2,3.2-12.5,4.9-18.8c0.6-2.2,1.3-4.3,2.1-6.4c1-2.5,1.9-2.8,4.5-2
	c3.6,1.2,5.8,3.7,6.3,7.4c0.2,1.7,0.2,3.5,0.1,5.3c-0.2,8.5-0.6,16.9-0.6,25.4c0,4.5,0.5,8.9,0.9,13.4c0.2,1.6,0.7,3.3,1.5,4.8
	c0.7,1.6,1.8,1.6,3,0.3c0.7-0.8,1.4-1.8,1.9-2.8c2.2-4.7,4.3-9.5,6.3-14.2c0.3-0.7,0.3-1.6,0.2-2.3c-1.3-7.5-1.7-15.1-2.1-22.7
	c0-1-0.1-2.1,0-3.1c0.2-2.8,1.7-4.2,4.5-4.3c1,0,2.1,0,3.1,0.1c4.2,0.4,7.1,3,8,7.1c0.3,1.6,0.4,3.2,0.5,4.8
	c0.2,8.8,0.8,17.6,2.5,26.2c0.5,2.6,1.2,5.1,2.3,7.6c1.7,4,4,4.3,6.7,0.9c1.2-1.5,2.2-3.1,3.1-4.8c3.3-6,5.6-12.4,7.5-18.9
	c0.4-1.5,0.3-2.8-0.6-4.3c-2.9-4.9-4.4-10.5-5.5-16c-1-4.9-1.8-9.8-1-14.8c0.3-1.8,0.8-3.6,1.5-5.3c1.5-3.4,4.3-5,8-5.1
	c2.4-0.1,4.1,1,5.2,3.1c1.1,2.3,1.5,4.7,1.5,7.2c0.3,8.9-1.2,17.5-3.1,26.1c-0.3,1.5-0.8,2.9-1.2,4.4c-0.2,0.7-0.3,1.3,0.3,2
	c2.3,2.7,6.7,3.9,10.1,2.8c1.8-0.6,2-0.7,2-2.7c0.3-6.2,1.9-12.1,4.5-17.8c2.1-4.5,4.8-8.5,8.5-11.8c6.1-5.5,13.1-7.5,21.1-5.2
	c1.1,0.3,2.3,0.8,3.3,1.4c5.3,2.9,7.1,8.2,4.6,13.7c-1.3,2.9-3.5,5.1-6,7c-4.5,3.2-9.5,5.2-14.8,6.6c-1.3,0.4-2.6,0.7-4,0.9
	c-1.3,0.1-2,0.8-2.3,2c-0.8,2.4-0.8,4.9-0.5,7.4c0.7,6.2,2.6,11.9,6.2,16.9c1.1,1.5,2.5,2.9,4,4.1c2.6,2,5.5,2.2,8.4,0.8
	c1.9-1,3.7-2.3,5.3-3.7c3.5-3.1,6.2-6.9,8.5-11c2-3.5,3.8-7.2,5.7-10.8C360.5,258.7,360.8,258.1,361.2,257.3z M323.9,250.5
	c0.6,0,1,0.1,1.4,0.1c0.7,0,1.4,0,2.1-0.2c5.2-1,10-2.9,14.2-6.1c1.6-1.3,3-2.8,4.4-4.4c1.2-1.4,1.8-3.2,1.9-5.1
	c0.2-2.9-1.1-4.9-3.8-6c-3.5-1.4-6.6-0.4-9.2,2.1c-4.9,4.7-8.4,10.4-10.5,16.9C324.1,248.6,324,249.5,323.9,250.5z M291.9,255.2
	c0.2,0,0.3-0.1,0.5-0.1c0.1-0.3,0.3-0.6,0.4-0.9c2.6-9.6,4.1-19.3,3.6-29.3c-0.1-1.1-0.3-2.2-0.6-3.3c-0.8-2.4-2.3-3.1-4.7-2.2
	c-2,0.8-3.3,2.4-3.7,4.4c-0.5,2.5-1,5-0.9,7.6c0.2,6.7,1.5,13.1,3.7,19.4C290.6,252.3,291.3,253.8,291.9,255.2z"/>
<path class="st1" d="M157,206.2c0.5-1,1-1.9,1.5-3c0.9,0.7,1.5,1.2,2.3,1.7c0.9,0.6,1.8,1.3,2.8,1.9c4.9,2.7,9.6,1.4,12.3-3.5
	c3.3-6.2,3.3-12.6,0.6-19c-1.1-2.6-3.3-4.2-6.1-4.4c-6.3-0.4-12.3,0.7-17.5,4.5c-7,5.1-9.4,12.3-8.4,20.7c0.6,5.1,2.5,9.7,5,14.1
	c5.6,9.7,11.4,19.2,16.9,29c4.8,8.6,8.5,17.7,10.7,27.4c2.5,11.2,2.4,22.2-1.3,33.1c-4.7,13.5-14.3,21.3-28.3,23.6
	c-6.6,1.1-13.2,1.2-19.8-0.6c-12.5-3.3-20-11.5-22.7-24c-1.4-6.3-1.6-12.7,0.5-19c1.6-4.8,4.1-9,8.2-12.1c3.9-3,8.4-4.2,13.3-3.7
	c2.8,0.3,5.2,1.6,6.9,3.9c0.6,0.9,1.3,1.8,2.1,2.8c-0.9,0.5-1.8,1-2.9,1.6c-0.6-0.8-1.2-1.6-1.7-2.3c-1.2-1.7-2.9-2.6-5.1-2.8
	c-6.3-0.4-11.2,2.2-14.6,7.4c-2.2,3.3-3.4,7.1-3.9,11c-0.8,7.4,0.5,14.5,4.3,21c1.8,3,4,5.6,6.9,7.6c5,3.5,10.4,4.3,16.2,2.3
	c7.2-2.5,12.6-7.1,15.9-14c6.3-13.2,7-26.7,2-40.5c-3-8.5-7.6-16.2-12.2-23.8c-3.5-5.7-7-11.3-10.3-17c-3.3-5.7-5.9-11.7-7.1-18.2
	c-2.7-14.4,1.3-26.4,13-35.5c5.2-4,11.3-5.8,17.9-6.1c3.8-0.2,7.7,0,11.4,1c8,2.1,13.1,7,15.1,15.1c1.3,5.4,1,10.6-0.7,15.8
	c-1.2,3.5-3.5,6.1-6.7,7.9c-2.4,1.4-4.9,1.8-7.6,1.1C162.4,210.3,159.6,208.6,157,206.2z"/>
<path class="st0" d="M99.7,386.8c-0.6,1.1-0.9,1.8-1.3,2.4c-0.9,1.4-1.7,2.9-2.7,4.2c-2.6,3.1-6.6,3.3-9.4,0.4c-1-1-2-2.4-2.5-3.8
	c-0.9-2.6-1.6-5.4-1.8-8.1c-0.5-6.1-0.1-12.3,0.6-18.4c0.3-2.7,0.7-5.4,1.1-8.1c0.1-0.7,0-1.4,0-2.2c-2.1-1.2-4.2-1.4-6.4-0.5
	c-2.4,1-2.5,3.3-2.9,5.9c-0.5-0.7-0.8-1.1-0.8-1.4c-0.2-3.2,2-5.7,5.3-5.9c1.7-0.1,3.3,0,5.3,0c0.1-0.6,0.3-1.5,0.5-2.4
	c0.2-0.8,0.3-1.6,0.5-2.3c0.3-1.2,0.1-2.8,1.9-2.9c1.7-0.1,3.7,1.6,3.9,3.3c0.1,1.3-0.1,2.7-0.2,4.1c0,0.6-0.2,1.2-0.3,1.8
	c3.3,2.1,6.3,1.8,8.8-1c1.3-1.4,1.3-1.4,2.5-1.7c-1,2.2-2.5,3.8-4.6,4.7c-2.2,0.9-4.4,0.3-6.7-0.1c-0.2,0.6-0.5,1-0.5,1.4
	c-1.3,8.6-2,17.3-1.5,26.1c0.1,2,0.6,3.9,0.9,5.9c0.1,0.5,0.3,0.9,0.5,1.4c0.6,1.4,1.4,2.8,3.1,3c1.6,0.1,2.5-1.1,3.1-2.3
	c1.2-2,2.2-4.1,3.1-6.2c0.4-0.9,0.3-2,0.3-3c-0.2-9.6,0.6-19.2,2.9-28.5c0.9-3.7,2.2-7.4,4.3-10.6c1.7-2.7,3.9-4.9,7.2-5.6
	c0.8-0.2,1.7-0.3,2.6-0.2c2.5,0.1,4.3,1.6,4.5,4.1c0.2,1.9,0.2,3.9-0.4,5.7c-1,3-2.1,6.1-3.8,8.8c-3.1,4.8-6.5,9.3-9.9,13.8
	c-1,1.3-1.7,2.6-1.7,4.3c0,1.7,0,3.5,0,5.6c0.4-0.9,0.7-1.5,1-2.1c1.2-2.2,2.4-4.5,3.8-6.6c0.8-1.1,2.1-2,3.3-2.7
	c2.4-1.2,4.6-0.4,5.8,2c0.6,1.2,1,2.6,0.9,3.9c-0.1,3.3-0.5,6.5-0.7,9.8c-0.3,3.6-0.5,7.2-0.7,10.8c0,1-0.2,2.1,1,3
	c0.6-0.7,1.4-1.4,1.7-2.2c1.9-4.5,3.8-9,5.4-13.6c0.6-1.7,0.3-3.6,0.6-5.5c0.6-3.4,1.9-6.4,4.1-9.1c2.4-2.8,5.3-4.4,9.1-3.8
	c1.1,0.2,2.2,0.5,3.1,1.1c2.1,1.2,2.9,3.6,1.6,5.8c-0.8,1.4-2.1,2.7-3.5,3.5c-1.9,1.1-4.1,1.8-6.2,2.5c-1.9,0.6-2.3,0.8-2.4,2.7
	c0,3.8,1,7.3,3.7,10.1c1.7,1.8,3.6,2,5.6,0.5c1.3-1,2.6-2.2,3.5-3.6c1.4-2.1,2.6-4.4,3.9-6.6c0.3-0.5,0.3-1.3,1.3-1
	c0,0.2,0.1,0.5,0.1,0.6c-1.7,4.2-3.8,8.1-7.3,11.1c-2.7,2.3-5.7,3.5-9.3,2.4c-2.8-0.9-4.5-2.9-5.8-5.4c-0.4-0.8-0.7-1.6-1.2-2.7
	c-0.4,0.8-0.6,1.3-0.8,1.8c-1.4,3.2-2.7,6.5-4.2,9.7c-0.5,1.1-1.3,2.2-2.1,3.2c-2.3,2.6-5.4,2.1-6.6-1.1c-0.5-1.4-0.9-3-0.9-4.4
	c0.1-4.7,0.4-9.4,0.7-14.1c0.1-2,0.4-4,0.6-6c0.1-0.6,0-1.3-0.1-1.9c-0.3-1.4-1.3-1.8-2.5-1c-0.6,0.4-1.1,0.9-1.5,1.5
	c-2.8,4.5-4.8,9.2-5,14.5c-0.1,1.3-0.2,2.7-0.5,4c-0.2,1-0.9,1.7-2,1.8c-1.1,0-1.6-0.7-1.9-1.6C100.4,389.1,100.1,388.2,99.7,386.8z
	 M105.6,366.7c0.2,0.1,0.4,0.1,0.5,0.2c0.2-0.2,0.5-0.3,0.7-0.6c4-4.7,7.7-9.6,10.5-15.1c0.9-1.8,1.7-3.6,2.2-5.6
	c0.4-1.8,0.5-3.8,0.3-5.7c-0.3-2.2-1.8-2.9-3.8-1.7c-0.7,0.4-1.3,0.9-1.9,1.5c-1.7,1.6-2.9,3.4-3.6,5.6c-1.2,3.8-2.3,7.6-3.2,11.5
	C106.4,360.1,106.1,363.4,105.6,366.7z M134,374.2c3.9-0.3,6.9-1.6,9.3-4.1c0.5-0.5,0.8-1.2,1.1-1.8c0.5-1.1,0.5-2.2-0.4-3.1
	c-0.9-0.8-2.1-1.3-3.3-0.8c-0.6,0.2-1.2,0.6-1.6,1C136.6,367.8,134.9,370.5,134,374.2z"/>
<path class="st1" d="M46.1,161.5c-1.6-2.6-2.2-5.2-1.2-8c0.7-2.1,2-3.8,4-4.9c2.8-1.5,5.7-1.1,7.9,1.1c0.9,0.9,1.7,1.9,2.3,3
	c3.5,6.2,6.8,12.4,10.2,18.7c0.1,0.3,0.2,0.6,0.5,1.1c-2.2,0.5-4.2,1.2-6.3,1.6c-4.8,0.9-9.6,1.7-14.4,2.3c-2.4,0.3-4.8-0.1-7-1.2
	c-4.1-2-5-5.5-2.3-9.2C41.3,163.9,43.4,162.5,46.1,161.5z"/>
<path class="st0" d="M375.7,314.3c-0.4-3-0.9-5.8-1.2-8.6c-0.4-3.2-0.8-6.5-0.9-9.8c-0.1-2.2,0.1-4.5,0.6-6.6
	c0.4-1.6,1.4-3.2,2.5-4.6c1.6-2,4-2.3,6.3-1.1c2.3,1.2,3.9,3.1,4.9,5.4c0.3,0.7,0.6,1.5,0.9,2.4c0.8-0.3,1.6-0.6,2.5-0.8
	c5.3-1.5,10.8,2.5,10.7,7.8c0,1.9-0.7,3.4-2.2,4.6c-1.1,0.9-2.3,1.7-3.6,2.3c-6.4,2.9-12.8,5.7-19.2,8.6
	C376.7,314.1,376.4,314.1,375.7,314.3z"/>
<path class="st0" d="M394.8,230.1c1.1,0.3,2.1,0.4,3,0.7c2.4,1,3.9,2.7,4.1,5.4c0.3,3-1.4,5.1-4.4,5.5c-0.8,0.1-1.6,0.2-2.4,0.1
	c-4.8-0.1-9.6-0.1-14.4-0.2c-0.5,0-1.1-0.1-2-0.2c1.7-5.8,3-11.6,6.3-16.6c0.7-1.1,1.9-2,3-2.6c2.2-1.3,4.3-0.7,5.5,1.5
	c0.6,1.1,0.9,2.5,1.2,3.8C394.9,228.4,394.8,229.2,394.8,230.1z"/>
<path class="st1" d="M76.8,201.1c-0.8-0.2-1.5-0.3-2.3-0.6c-2.5-0.9-4-2.6-4.3-5.2c-0.4-3.2,1.4-5.4,4.6-5.8c0.1,0,0.2,0,0.2,0
	c6,0.3,11.9,0.5,18.2,0.8c-0.3,1.2-0.5,2-0.8,2.8c-1.3,3.4-2.5,6.7-3.9,10c-0.9,2.1-2.1,4-3.9,5.3c-3.2,2.4-6.3,1.4-7.4-2.4
	C76.9,204.6,77,202.9,76.8,201.1z"/>
<path class="st2" d="M268.6,446c-0.3,0.7-0.4,1.1-0.6,1.5c-6.4,12.1-13.9,23.5-23.3,33.6c-2.3,2.5-5,4.7-7.7,6.8
	c-2.7,2.1-5.9,3.2-9.4,3.1c-3.4-0.1-5.5-1.8-6.3-5.1c-0.6-2.4-0.4-4.8,0.2-7.1c1.5-5.5,4.4-10,8.3-14.1c5.4-5.5,11.8-9.4,18.8-12.6
	c6.1-2.7,12.3-4.9,18.9-6.2C267.8,445.9,268.1,446,268.6,446z"/>
<path class="st2" d="M209.2,384.8c0.3,2.1,0.5,3.5,0.6,5c1.6,18.3,2,36.5,1,54.8c-0.3,5.8-0.8,11.6-2.3,17.3c-0.5,2.1-1.2,4.2-2.2,6
	c-1.9,3.6-5.4,3.7-7.8,0.3c-1.6-2.3-2.2-5-2.6-7.7c-0.8-5.5-0.6-11-0.3-16.5c1.2-19.8,6.3-38.7,12.6-57.4
	C208.5,386.2,208.8,385.8,209.2,384.8z"/>
<path class="st2" d="M465.1,406c0.5-2,0.7-3.5,1.2-5c2.2-6.6,5.5-12.6,10-17.8c1.3-1.5,2.8-2.8,4.4-4.1c3.6-2.8,8.2-1.8,11,0
	c2.7,1.8,3.7,4.8,2.7,8.5c-0.7,2.6-2,4.9-3.9,6.8c-6.3,6.6-14.2,10.1-23.1,11.6C466.8,406,466.2,406,465.1,406z"/>
<path class="st2" d="M122.1,73.7c2,1.3,4.8,1.3,7.4,1.9c5.4,1.1,10.9,1.9,16.2,3.2c4.1,1,8.1,2.4,12,4.1c4.9,2.2,9.7,4.7,14.2,7.5
	c3.8,2.3,7.4,5.1,10.6,8.1c4.6,4.4,8.8,9.3,13.1,14c3.3,3.6,4.6,8.2,6.2,12.6c1.9,5.1,2.7,10.5,3.3,15.9c0.3,2.9,0.9,5.7,1.4,8.5
	c0.2,1.3,0.5,2.7,0.7,4c2.5,13.7,8.6,25.4,20.1,33.7c4,2.9,8.4,5.2,13,7.1c5.3,2.1,10.8,2.2,16.2,0.5c3.7-1.2,7.3-2.8,11-4.2
	c2-0.8,3.9-1.6,5.9-2.4c0.1,0.1,0.2,0.3,0.4,0.4c-0.2,0.5-0.3,1.1-0.6,1.6c-4.2,5.8-8.5,11.4-14.5,15.5c-0.2,0.1-0.4,0.2-0.6,0.4
	c-4.2,4-9.6,4.9-14.9,5.8c-7,1.2-13.8,0.5-20.7-1.1c-4.7-1.1-8.8-3.4-12.5-6.3c-5.6-4.4-10.3-9.6-14.2-15.5
	c-1.9-2.8-3.6-5.7-5.3-8.5c-2.5-4.1-3.6-8.7-4-13.4c-0.5-7.6-0.9-15.2-1.5-22.7c-0.5-6.4-2.6-12.3-5.6-17.9
	c-5.4-9.9-12.4-18.3-21.9-24.7c-4.6-3.2-9.5-6-14.5-8.4c-4.4-2.1-8.9-3.7-14-3.8c-7-0.2-13.9-2-20.8-3.4c-4.2-0.8-8.6-1.1-12.6-2.6
	c-1.2-0.5-2.3-0.9-3.7-1.5c2.1-1.7,4.1-2.8,6.5-3.1c4.2-0.6,8.4-1.1,12.5-2C114.5,76.1,118.1,74.8,122.1,73.7z"/>
<path class="st2" d="M87.7,223.4c-0.4,0.7-0.7,1.4-1.1,2.1c-3.1,4.9-5,10.3-6.6,15.9c-1.8,6-3.6,11.9-4.8,18
	c-1.6,8-0.6,16.1,1.5,23.9c0.4,1.5,0.6,3.1,1,4.7c0.5,1.8,0.9,3.6,1.7,5.2c2.9,6,5.9,12,8.9,18c0.9,1.7,1.9,3.4,2.9,5.3
	c-0.3,0.1-0.8,0.3-1.3,0.3c-1.4,0.1-2.9,0-4.3,0.1c-1.3,0.1-2.5,0.4-3.3,1.7c-0.3,0.5-1,0.8-1.6,0.9c-1.1,0.1-2.2,0.2-3.3,0
	c-6.9-0.8-12.4,1.7-16.4,7.3c-0.9,1.2-1.2,2.7-1.8,4.1c-0.2,0.6-0.3,1.4-0.6,2.4c-0.6-0.8-1-1.2-1.3-1.7c-4-6.1-6-13-7.4-20.1
	c-1.1-5.6-1.3-11.1-0.7-16.7c0.2-1.9,0.3-3.8,0.3-5.7c0.1-6.1,2.1-11.8,4.2-17.4c1-2.7,2.1-5.4,3.1-8c3.6-9.4,9.2-17.7,15.7-25.3
	c4.6-5.3,9.6-10.2,14.5-15.3C87.4,223.1,87.6,223.2,87.7,223.4z"/>
<path class="st2" d="M91.1,79.8c-0.3-1.2-0.6-2.1-0.9-3.4c6.2-2.6,9.2-8.1,12.6-13.3c-1.9,0.2-2.4,1.9-3.4,3c-1,1.2-1.8,2.4-3.1,3.5
	c0.8-2.4,1.6-4.8,2.4-7.2c0.8-2.5,1.7-4.9,2.7-7.8c-0.7,0.3-1.3,0.3-1.5,0.6c-0.5,0.9-1,1.8-1.3,2.8c-0.7,1.9-1.3,3.8-1.8,5.7
	c-0.9,4.1-3.2,7.4-5.9,10.6c-0.2,0.2-0.5,0.3-0.8,0.4c-0.1-0.2-0.3-0.4-0.2-0.5c2.6-4,3.2-8.6,3.9-13.2c0.4-3.2,0.5-6.5,0.5-9.8
	c0-8.7,3.1-16.4,7.9-23.5c0.6-0.8,1.4-1.6,2.2-2.2c5.4-4.2,11.2-7.6,17.7-10c2.5-0.9,5.1-1.2,7.8-0.6c1.3,0.3,2.4,0.9,3,2.1
	c2.2,4,4.4,8,6.5,12c0.9,1.8,1.4,3.8,0.9,6.3c-0.6-0.7-1-1.1-1.2-1.5c-0.8-1.5-2.1-1.9-3.6-1.8c-3.1,0.2-5.9,1-8.1,3.4
	c-2.8,3-4.9,6.3-6.3,10.1c-0.5,1.3-1.1,2.7-1.4,4.1c-1.1,5-3.4,9.6-5.2,14.4c-1.1,2.8-2.9,5-5.3,6.7c-2.2,1.5-4.5,2.8-6.8,4
	c-3.2,1.6-6.5,3-9.8,4.5C92.1,79.6,91.8,79.6,91.1,79.8z"/>
<path class="st2" d="M67.4,116.4c2,0.6,4,1.2,6.3,1.9c1.2-5.3,4.1-9.8,7.3-14.5c0.3,0.4,0.5,0.7,0.6,1c1.5,4.4,4,8.1,6.8,11.7
	c4.9,6.2,11.2,10.7,17.1,15.7c4.8,4.1,9,8.5,12.4,13.9c6.4,10.4,6.9,21.2,2.9,32.5c-2.7,7.7-7.6,13.8-13.4,19.3
	c-0.3,0.3-0.6,0.4-1.5,1c0.6-2.1,1.1-3.7,1.5-5.3c0.5-1.8,1.1-3.5,1.3-5.3c1-7.3,1-14.5-0.8-21.7c-2.6-10.1-8.3-18-16.3-24.5
	c-4.6-3.8-9.2-7.7-13.7-11.6c-4.1-3.5-7.3-7.8-10.2-12.3c-0.3-0.4-0.5-0.8-0.7-1.2C67.2,116.7,67.3,116.6,67.4,116.4z"/>
<path class="st2" d="M280.9,183.7c0.7-1.4,1.3-2.5,1.9-3.5c2.1-3.5,4.2-7,6.5-10.3c1.4-2,3.3-3.6,4.9-5.5c1.5-1.8,2.8-3.7,4.2-5.5
	c1.3-1.7,2.6-3.4,4-5.1c2.2-2.4,3.9-5.1,5-8.1c2-5.4,4.1-10.7,5.1-16.4c0.2-1.2,0.6-2.5,1-4c0.6,0.5,1,0.8,1.4,1.2
	c0.8,0.9,1.6,1.8,2.2,2.9c2.4,4.1,6.1,6.7,9.9,9.2c3.2,2,6.6,3.2,10.5,2.1c0.3-0.1,0.6,0,1.2,0.1c-1,1.9-1.9,3.7-2.8,5.4
	c-0.9,1.8-2,3.6-2.5,5.7c-0.3,1.2-1.4,2.3-2.3,3.3c-7.2,7.6-15.4,14-24.1,19.6c-4.1,2.6-8.6,4.6-13.3,5.9c-3.7,1-7.4,2-11.1,3
	C282.2,183.6,281.7,183.6,280.9,183.7z"/>
<path class="st2" d="M64.9,84.5c-0.6,0.8-0.8,1.1-1.1,1.3c-5.5,4.5-9.3,10.3-12.4,16.6c-1.1,2.2-2.4,3.5-4.8,4.2
	c-2.4,0.7-4.8,1.8-7.1,2.8c-1.1,0.5-2.3,1.2-3.2,2c-1.8,1.6-2,3.5-0.8,5.6c0.2,0.3,0.4,0.6,0.7,1c-2,0.6-3.2,0.4-4.6-0.9
	c-1-1-2-2.1-2.8-3.3c-1.9-2.8-3.8-5.7-5.6-8.6c-1.8-2.8-3.6-5.7-5.5-8.5c-1.7-2.6-1.6-3.8,0.8-5.7c5.7-4.4,11.9-7.3,19.3-7.3
	c7.2,0.1,14.4,0,21.6,0.1C61.1,83.9,62.7,84.2,64.9,84.5z"/>
<path class="st2" d="M110.7,75.3c0.4-0.5,0.4-0.6,0.6-0.7c8-4.7,14-11.6,20-18.5c2.2-2.6,4.2-5.2,6.3-7.9c0.9-1.1,1.5-2.4,2.2-3.7
	c3.3-6,2.9-12,0.1-18c-0.2-0.5-0.5-1-0.8-1.5c-0.4-0.7-0.3-1.4,0.4-1.9c4.2-2.6,8.2-5.5,13.3-6.4c1.5-0.3,2.4,0.1,3.2,1.4
	c3.5,6.4,7,12.8,10.5,19.1c0.1,0.3,0.2,0.6,0.3,0.9c-0.2,0.1-0.4,0.2-0.5,0.1c-2.8-1.6-5.4-1.6-8.4-0.1c-5.3,2.6-9.6,6-12.8,10.9
	c-1.2,1.9-2.3,3.8-3.5,5.7c-2.6,4.3-5.8,8-10,10.8c-0.7,0.5-1.2,1.2-1.8,1.8c-0.4,0.4-0.7,0.9-1.2,1.1c-5.2,2.8-10.5,5.4-16.4,6.6
	C111.8,75.2,111.4,75.2,110.7,75.3z"/>
<path class="st2" d="M65.1,71.7c2.6-1.2,4.1,0.8,6.1,2.2c-0.1-0.8,0-1.3-0.2-1.7c-1-1.9-3.7-3-5.8-2.6c-2.1,0.5-2.9,2.1-1.4,3.6
	c1.1,1.1,2.7,1.9,4.2,2.6c1.1,0.5,2.2,0.9,3.3,1.3c0.3,0.1,0.6,0.2,0.7,0.6c-5.5-0.3-10.4-2.6-15.9-3.3c0.3,1.3,1.2,1.5,2,1.7
	c2.6,0.8,5.2,1.5,7.8,2.3c2.8,0.8,5.5,1.6,8.2,2.6c1,0.3,2.2,0.7,2.7,2.3c-0.6,0.2-1.2,0.7-1.8,0.7c-1.5,0-3-0.1-4.5-0.4
	c-5.8-1-11.7-1.6-17.6-1.5c-7.4,0.2-14.6-1.5-21.5-4.2c-0.1-0.1-0.2-0.2-0.5-0.5c0.3-0.3,0.6-0.7,0.9-0.9c1.2-0.7,2-1.6,1.6-3.1
	c-0.2-1,0.5-1.4,1.2-1.8c1-0.6,1.8-1.2,2-2.5c0.1-0.5,0.7-1.1,1.2-1.4c0.8-0.5,1.7-0.8,2.6-1.2c2.2-1,2.4-1.5,2.1-3.9
	c0-0.3-0.1-0.6-0.1-1.1c0.7-0.3,1.3-0.6,2-0.7c1.2-0.2,1.6-0.8,1.5-2c-0.1-2.2,1.4-3.3,3.5-2.5c1.4,0.6,2.8,1.2,4.1,2
	c5.2,2.9,10.3,5.8,15.4,8.7c2.6,1.5,4.9,3.5,6.9,5.9c1.7,2,1.8,3.9,0.6,6.4c-0.7-0.5-1.5-0.8-2-1.3c-1.7-1.7-3.7-2.7-5.9-3.5
	c-1-0.3-2-1-2.9-1.6C65.4,72.7,65.3,72.2,65.1,71.7z"/>
<path class="st2" d="M72.5,115.5c-2.4,0.1-4.1-0.7-5-3.2c-1.2,0.9-2.2,1.6-3.3,2.5c-1.4-1.2-2.4-3.1-4.6-2.6
	c-0.8-2.7-0.8-2.7-3.4-2.7c-0.2-1.2-0.4-2.5-0.7-4.1c-1-0.3-2.1-0.6-3.4-0.9c0.1-0.4,0.1-0.7,0.3-1.1c2.4-4.7,5.3-9.1,8.8-13.1
	c0.4-0.4,0.7-0.8,1.1-1.2c4.1-4.2,6-4.7,12.2-3c-0.9,1.8-1.8,3.6-2.6,5.4c-0.7,1.7-2,3.2-1.9,5.7c0.5-0.6,0.9-0.8,1.1-1.1
	c1.3-2.6,2.6-5.3,4-7.9c0.6-1.2,1.5-2.2,3.2-2.5c-0.1,2.8-1.7,5.2-1.3,8c1.1,0.3,1.3-0.3,1.4-1.1c0.3-1.7,0.8-3.4,1.2-5.1
	c3.2,1.5,3.9,2.6,3.5,6.3c-0.2,2-0.8,4.1-1.6,6c-1,2.3-2.4,4.5-3.7,6.7c-1.6,2.8-3.1,5.6-4.7,8.3C72.9,115,72.7,115.2,72.5,115.5z"
	/>
<path class="st2" d="M108.2,73.8c0.9-0.8,1.8-1.5,2.7-2.3c2.6-2.2,4.3-4.8,5.4-8c1.9-5.8,4-11.5,6-17.2c1.3-3.8,3.4-7.1,6.3-9.8
	c1.1-1,2.6-1.9,4.1-2.4c3-1,5.5,0.8,6.2,3.8c0.6,2.6,0.4,4.9-1.1,7.1c-1,1.5-1.9,3-2.9,4.4c-4.5,5.9-9.4,11.5-14.8,16.7
	C116,70,113.8,71.5,108.2,73.8z"/>
<path class="st2" d="M35.7,120.4c-4.5,3.2-7,7.1-8.9,11.8c-1.9-1.6-3.4-3.2-4.6-5.2c-0.5-0.8-0.8-1.7-1.9-2
	c-0.3-0.1-0.6-0.5-0.9-0.8c-3-3.5-6-7-8.9-10.6c-2.3-2.8-2.2-2.9-0.3-6.1c1.8-3,4.6-5,7.5-7.3c0.7,0.9,1.2,1.5,1.7,2.2
	c1.6,2.5,3,5.1,4.7,7.5c1.8,2.7,3.8,5.3,5.8,7.9c0.9,1.2,2.1,2,3.6,2.1C34,119.9,34.5,120.1,35.7,120.4z"/>
<path class="st2" d="M54.9,114.1c-4.8,8-11.6,13-19.6,16.6c-3.7,1.7-4,1.8-6.4,1.3c0.3-0.8,0.4-1.7,0.9-2.3
	c3.5-5.5,7.8-10,14.4-11.9c2.8-0.8,5.6-2,8.3-2.9C53.2,114.7,54,114.4,54.9,114.1z"/>
<path class="st2" d="M142.1,57c2-3.2,3.8-6.4,6-9.5c2.5-3.6,6.1-6,10.1-7.8c1.8-0.8,3.7-1.1,5.6-0.5c2.4,0.7,2.8,2.5,1,4.3
	c-0.6,0.5-1.2,1.1-1.9,1.5c-5.2,3.4-10.4,6.8-15.7,10.1c-1.5,0.9-3,1.7-4.6,2.5C142.4,57.4,142.2,57.2,142.1,57z"/>
<path class="st2" d="M159.2,19.6c1-0.6,1.6-0.9,2.2-1.3c0.8-0.4,1.5-0.2,2.1,0.4c0.3,0.4,0.7,0.7,0.9,1.1
	c3.4,5.1,6.8,10.2,10.2,15.4c0.3,0.5,0.5,1,0.8,1.6c-1.9,1.3-4,1.9-6.1,2.7C166,33,162.7,26.5,159.2,19.6z"/>
<path class="st2" d="M53.6,106.7c0.5,1.9,0.9,3.4,1.4,5.1c0,0-0.2,0.3-0.4,0.4c-4.1,1.6-8.2,3.2-12.3,4.7c-1.7,0.6-3.4,0.5-4.9-0.8
	c-1-0.9-1.2-2.1-0.2-3.1c0.5-0.6,1.2-1.1,1.9-1.4c3.4-1.5,6.9-3,10.4-4.3C50.8,106.8,52.2,106.9,53.6,106.7z"/>
<path class="st2" d="M83.5,74.3c2.7,3.4,2.3,9.1,0.5,13.8c-0.3-0.1-0.8-0.2-1-0.4c-3.4-2.5-5-8-3.6-11.8c0.4-1,1-1.6,2.1-1.5
	C82.2,74.3,82.9,74.3,83.5,74.3z"/>
<path class="st2" d="M50.7,122.3c-1.7,3.3-3.8,6.4-6.5,8.7c-2.6,2.2-5.5,4.1-8.3,6.1c-0.5,0.4-1.1,0.6-1.7,0.9
	c-0.9,0.4-1.9,0.7-2.6-0.2c-0.5-0.7,0-2.6,0.8-3.3c0.4-0.3,1-0.6,1.4-0.9c3-1.8,6.1-3.5,9.1-5.3c2.6-1.5,5.2-3.1,7.2-5.5
	C50.2,122.6,50.4,122.4,50.7,122.3z"/>
<path class="st2" d="M86.7,84.6c0-3.3,0-6.3,0-9.5c0.3,0.2,0.8,0.4,0.9,0.6c0.7,1.9,1.4,3.9,1.8,5.9C89.7,83.2,89,83.8,86.7,84.6z"
	/>
<path class="st2" d="M155.3,51.8c3.2-2,6.3-4,9.5-6c0.8-0.5,1.6-1.1,2.2-1.8c1.6-1.9,2.5-2.6,5.6-3.7c-5.3,5-11,8.6-16.8,12
	C155.6,52.1,155.4,52,155.3,51.8z"/>
<path class="st2" d="M29.3,138.3c-1.2-1.4-2-2.3-3.1-3.5c1.4-0.2,2.5-0.4,3.7-0.6C29.8,135.6,29.6,136.7,29.3,138.3z"/>
<path class="st2" d="M323.9,250.5c0.2-1,0.2-1.9,0.5-2.7c2.1-6.5,5.6-12.2,10.5-16.9c2.6-2.5,5.7-3.5,9.2-2.1c2.7,1.1,4,3,3.8,6
	c-0.1,1.9-0.7,3.6-1.9,5.1c-1.3,1.6-2.7,3.1-4.4,4.4c-4.2,3.2-9,5.1-14.2,6.1c-0.7,0.1-1.4,0.1-2.1,0.2
	C324.9,250.6,324.5,250.5,323.9,250.5z"/>
<path class="st2" d="M291.9,255.2c-0.6-1.4-1.3-2.9-1.8-4.4c-2.2-6.3-3.5-12.8-3.7-19.4c-0.1-2.5,0.4-5.1,0.9-7.6
	c0.4-2,1.7-3.6,3.7-4.4c2.4-0.9,3.9-0.2,4.7,2.2c0.3,1.1,0.6,2.2,0.6,3.3c0.6,10-1,19.7-3.6,29.3c-0.1,0.3-0.3,0.6-0.4,0.9
	C292.2,255.1,292.1,255.2,291.9,255.2z"/>
<path class="st2" d="M105.6,366.7c0.5-3.3,0.9-6.6,1.6-9.9c0.9-3.9,2-7.7,3.2-11.5c0.7-2.2,1.9-4,3.6-5.6c0.6-0.5,1.2-1.1,1.9-1.5
	c2-1.1,3.6-0.5,3.8,1.7c0.2,1.9,0.1,3.8-0.3,5.7c-0.4,1.9-1.3,3.8-2.2,5.6c-2.8,5.5-6.5,10.4-10.5,15.1c-0.2,0.2-0.5,0.4-0.7,0.6
	C105.9,366.9,105.7,366.8,105.6,366.7z"/>
<path class="st2" d="M134,374.2c0.9-3.7,2.6-6.5,5-8.8c0.5-0.4,1-0.7,1.6-1c1.2-0.5,2.4-0.1,3.3,0.8c1,0.9,1,2,0.4,3.1
	c-0.3,0.6-0.6,1.3-1.1,1.8C140.8,372.7,137.8,373.9,134,374.2z"/>
</svg>
